<svg width="20" height="18" viewBox="0 0 20 18" fill="none" xmlns="http://www.w3.org/2000/svg">
<path d="M5 12.0944H11C11.2833 12.0944 11.5208 11.9979 11.7125 11.8048C11.9042 11.6118 12 11.3726 12 11.0872C12 10.8019 11.9042 10.5627 11.7125 10.3697C11.5208 10.1766 11.2833 10.0801 11 10.0801H5C4.71667 10.0801 4.47917 10.1766 4.2875 10.3697C4.09583 10.5627 4 10.8019 4 11.0872C4 11.3726 4.09583 11.6118 4.2875 11.8048C4.47917 11.9979 4.71667 12.0944 5 12.0944ZM5 9.07298H15C15.2833 9.07298 15.5208 8.97647 15.7125 8.78343C15.9042 8.5904 16 8.3512 16 8.06585C16 7.7805 15.9042 7.5413 15.7125 7.34827C15.5208 7.15523 15.2833 7.05872 15 7.05872H5C4.71667 7.05872 4.47917 7.15523 4.2875 7.34827C4.09583 7.5413 4 7.7805 4 8.06585C4 8.3512 4.09583 8.5904 4.2875 8.78343C4.47917 8.97647 4.71667 9.07298 5 9.07298ZM5 6.05159H15C15.2833 6.05159 15.5208 5.95507 15.7125 5.76203C15.9042 5.569 16 5.32981 16 5.04445C16 4.7591 15.9042 4.5199 15.7125 4.32687C15.5208 4.13384 15.2833 4.03732 15 4.03732H5C4.71667 4.03732 4.47917 4.13384 4.2875 4.32687C4.09583 4.5199 4 4.7591 4 5.04445C4 5.32981 4.09583 5.569 4.2875 5.76203C4.47917 5.95507 4.71667 6.05159 5 6.05159ZM4 16.1229L1.7 18.4393C1.38333 18.7582 1.02083 18.8296 0.6125 18.6533C0.204167 18.4771 0 18.1624 0 17.7091V2.02305C0 1.46913 0.195833 0.99494 0.5875 0.60048C0.979167 0.206019 1.45 0.00878906 2 0.00878906H18C18.55 0.00878906 19.0208 0.206019 19.4125 0.60048C19.8042 0.99494 20 1.46913 20 2.02305V14.1086C20 14.6626 19.8042 15.1368 19.4125 15.5312C19.0208 15.9257 18.55 16.1229 18 16.1229H4ZM3.15 14.1086H18V2.02305H2V15.2417L3.15 14.1086Z" fill="white"/>
</svg>
