<svg width="43" height="43" viewBox="0 0 43 43" fill="none" xmlns="http://www.w3.org/2000/svg">
<mask id="mask0_666_4075" style="mask-type:alpha" maskUnits="userSpaceOnUse" x="0" y="0" width="43" height="43">
<rect width="43" height="43" fill="#D9D9D9"/>
</mask>
<g mask="url(#mask0_666_4075)">
<path d="M10.75 28.667H25.0833V27.6816C25.0833 26.3677 24.4264 25.3076 23.1125 24.5014C21.7986 23.6951 20.0666 23.292 17.9166 23.292C15.7666 23.292 14.0347 23.6951 12.7208 24.5014C11.4069 25.3076 10.75 26.3677 10.75 27.6816V28.667ZM17.9166 21.5003C18.9021 21.5003 19.7456 21.1495 20.4474 20.4477C21.1491 19.746 21.5 18.9024 21.5 17.917C21.5 16.9316 21.1491 16.088 20.4474 15.3863C19.7456 14.6845 18.9021 14.3337 17.9166 14.3337C16.9312 14.3337 16.0877 14.6845 15.3859 15.3863C14.6842 16.088 14.3333 16.9316 14.3333 17.917C14.3333 18.9024 14.6842 19.746 15.3859 20.4477C16.0877 21.1495 16.9312 21.5003 17.9166 21.5003ZM7.16665 35.8337C6.18123 35.8337 5.33765 35.4828 4.63592 34.7811C3.93418 34.0793 3.58331 33.2357 3.58331 32.2503V10.7503C3.58331 9.76491 3.93418 8.92133 4.63592 8.2196C5.33765 7.51786 6.18123 7.16699 7.16665 7.16699H28.6666C29.6521 7.16699 30.4956 7.51786 31.1974 8.2196C31.8991 8.92133 32.25 9.76491 32.25 10.7503V18.8128L37.8937 13.1691C38.1923 12.8705 38.5208 12.7958 38.8792 12.9451C39.2375 13.0944 39.4166 13.3781 39.4166 13.7962V29.2045C39.4166 29.6225 39.2375 29.9062 38.8792 30.0555C38.5208 30.2048 38.1923 30.1302 37.8937 29.8316L32.25 24.1878V32.2503C32.25 33.2357 31.8991 34.0793 31.1974 34.7811C30.4956 35.4828 29.6521 35.8337 28.6666 35.8337H7.16665ZM7.16665 32.2503H28.6666V10.7503H7.16665V32.2503Z" fill="var(--main-purple)"/>
</g>
</svg>
