<svg width="20" height="17" viewBox="0 0 20 17" fill="none" xmlns="http://www.w3.org/2000/svg">
<path d="M4 12.5592H12V12.0053C12 11.2667 11.6333 10.6709 10.9 10.2176C10.1667 9.76443 9.2 9.53783 8 9.53783C6.8 9.53783 5.83333 9.76443 5.1 10.2176C4.36667 10.6709 4 11.2667 4 12.0053V12.5592ZM8 8.53069C8.55 8.53069 9.02083 8.33346 9.4125 7.939C9.80417 7.54454 10 7.07035 10 6.51643C10 5.96251 9.80417 5.48831 9.4125 5.09385C9.02083 4.69939 8.55 4.50216 8 4.50216C7.45 4.50216 6.97917 4.69939 6.5875 5.09385C6.19583 5.48831 6 5.96251 6 6.51643C6 7.07035 6.19583 7.54454 6.5875 7.939C6.97917 8.33346 7.45 8.53069 8 8.53069ZM2 16.5878C1.45 16.5878 0.979167 16.3905 0.5875 15.9961C0.195833 15.6016 0 15.1274 0 14.5735V2.4879C0 1.93398 0.195833 1.45978 0.5875 1.06532C0.979167 0.670863 1.45 0.473633 2 0.473633H14C14.55 0.473633 15.0208 0.670863 15.4125 1.06532C15.8042 1.45978 16 1.93398 16 2.4879V7.02L20 2.99146V14.0699L16 10.0414V14.5735C16 15.1274 15.8042 15.6016 15.4125 15.9961C15.0208 16.3905 14.55 16.5878 14 16.5878H2ZM2 14.5735H14V2.4879H2V14.5735Z" fill="#FEFEFE"/>
</svg>
