<svg width="24" height="24" viewBox="0 0 24 24" fill="none" xmlns="http://www.w3.org/2000/svg">
<g opacity="0.5">
<path d="M0.668463 7.95046C-0.619985 4.36111 5.0862 2.61246 6.00646 6.01774L6.74282 7.4903L8.3074 3.90095C9.6327 1.98663 11.682 2.79654 12.541 3.44078C14.9707 2.77813 16.069 4.33044 16.3144 5.18943L17.787 5.6496C18.3023 3.80892 19.2595 2.78733 20.2719 2.88857C23.217 3.18308 23.6465 5.0974 23.4931 6.01774L18.2471 18.2583C16.7009 20.5408 15.0873 21.1727 14.4737 21.2034C13.6638 21.4979 11.8661 21.4489 11.0684 21.3875C9.50385 20.7126 6.24583 19.3075 5.73044 19.0866C5.21505 18.8658 4.77942 18.0129 4.62603 17.6141L0.668463 7.95046Z" stroke="white" stroke-width="0.552207" stroke-linejoin="round"/>
<path d="M3.0614 6.47821C2.39876 6.6991 2.60123 7.36788 2.7853 7.67466C3.61362 9.88349 5.43593 14.7061 6.09858 16.3259C6.92689 18.3507 7.66317 17.5223 11.0684 19.0869C13.7927 20.3386 16.1917 17.8905 17.0507 16.51L18.2471 14.025L21.6524 5.55787C21.6217 5.3738 21.4315 4.95044 20.9161 4.72956C20.4007 4.50868 20.0878 4.94431 19.9958 5.18973C18.8607 7.82806 16.5537 13.2151 16.4064 13.6569C16.2224 14.2091 15.6702 14.3011 15.21 14.5772C14.7498 14.8534 12.8171 14.3932 12.7251 13.841C12.633 13.2888 11.6206 13.1047 11.0684 13.3808C10.5162 13.6569 9.13572 11.6321 9.41182 12.4605C9.6327 13.1231 9.19707 14.2705 8.95165 14.7613C8.36876 14.884 7.29503 15.019 7.66317 14.5772C8.12334 14.025 7.66317 13.3808 7.66317 12.7366C7.66317 12.2212 6.62011 11.6015 6.09858 11.356L4.16586 7.12245C4.07381 6.81567 3.72405 6.25733 3.0614 6.47821Z" fill="white" stroke="white" stroke-width="0.552207" stroke-linejoin="round"/>
<line x1="10.5164" y1="5.56286" x2="8.77273" y2="10.0674" stroke="white" stroke-width="1.28848" stroke-linecap="round"/>
<line x1="16.4066" y1="7.58727" x2="14.6629" y2="12.0918" stroke="white" stroke-width="1.28848" stroke-linecap="round"/>
<path d="M13.8779 5.51367L11.6691 11.2198" stroke="white" stroke-width="1.28848" stroke-linecap="round"/>
</g>
</svg>
