<svg width="24" height="24" viewBox="0 0 24 24" fill="none" xmlns="http://www.w3.org/2000/svg">
<mask id="mask0_666_4045" style="mask-type:alpha" maskUnits="userSpaceOnUse" x="0" y="0" width="24" height="24">
<rect width="24" height="24" fill="#D9D9D9"/>
</mask>
<g mask="url(#mask0_666_4045)">
<path d="M2.00009 12C2.00009 10.6167 2.26259 9.31667 2.78759 8.1C3.31259 6.88333 4.02509 5.825 4.92509 4.925C5.82509 4.025 6.88343 3.3125 8.10009 2.7875C9.31676 2.2625 10.6168 2 12.0001 2C12.4501 2 12.8918 2.02917 13.3251 2.0875C13.7584 2.14583 14.1834 2.23333 14.6001 2.35C14.3334 2.6 14.0959 2.875 13.8876 3.175C13.6793 3.475 13.5084 3.79167 13.3751 4.125C13.1418 4.09167 12.9126 4.0625 12.6876 4.0375C12.4626 4.0125 12.2334 4 12.0001 4C9.76676 4 7.87509 4.775 6.32509 6.325C4.77509 7.875 4.00009 9.76667 4.00009 12C4.00009 14.2333 4.77509 16.125 6.32509 17.675C7.87509 19.225 9.76676 20 12.0001 20C14.2334 20 16.1251 19.225 17.6751 17.675C19.2251 16.125 20.0001 14.2333 20.0001 12C20.0001 11.7667 19.9876 11.5375 19.9626 11.3125C19.9376 11.0875 19.9084 10.8583 19.8751 10.625C20.2084 10.4917 20.5251 10.3208 20.8251 10.1125C21.1251 9.90417 21.4001 9.66667 21.6501 9.4C21.7668 9.81667 21.8543 10.2417 21.9126 10.675C21.9709 11.1083 22.0001 11.55 22.0001 12C22.0001 13.3833 21.7376 14.6833 21.2126 15.9C20.6876 17.1167 19.9751 18.175 19.0751 19.075C18.1751 19.975 17.1168 20.6875 15.9001 21.2125C14.6834 21.7375 13.3834 22 12.0001 22C10.6168 22 9.31676 21.7375 8.10009 21.2125C6.88343 20.6875 5.82509 19.975 4.92509 19.075C4.02509 18.175 3.31259 17.1167 2.78759 15.9C2.26259 14.6833 2.00009 13.3833 2.00009 12ZM18.0001 9C17.1668 9 16.4584 8.70833 15.8751 8.125C15.2918 7.54167 15.0001 6.83333 15.0001 6C15.0001 5.16667 15.2918 4.45833 15.8751 3.875C16.4584 3.29167 17.1668 3 18.0001 3C18.8334 3 19.5418 3.29167 20.1251 3.875C20.7084 4.45833 21.0001 5.16667 21.0001 6C21.0001 6.83333 20.7084 7.54167 20.1251 8.125C19.5418 8.70833 18.8334 9 18.0001 9Z" fill="var(--main-purple)"/>
</g>
</svg>
