<svg width="43" height="43" viewBox="0 0 43 43" fill="none" xmlns="http://www.w3.org/2000/svg">
<mask id="mask0_666_4078" style="mask-type:alpha" maskUnits="userSpaceOnUse" x="0" y="0" width="43" height="43">
<rect width="43" height="43" fill="var(--light-white))"/>
</mask>
<g mask="url(#mask0_666_4078)">
<path d="M12.5416 37.6245V14.3329L23.2916 3.67246C23.7396 3.22454 24.2696 2.96326 24.8818 2.88861C25.4939 2.81395 26.0837 2.92593 26.651 3.22454C27.2184 3.52316 27.6364 3.94121 27.9052 4.47871C28.1739 5.01621 28.2337 5.56864 28.0844 6.136L26.0687 14.3329H37.625C38.5805 14.3329 39.4166 14.6912 40.1333 15.4079C40.85 16.1245 41.2083 16.9607 41.2083 17.9162V21.4995C41.2083 21.7086 41.1785 21.9325 41.1187 22.1714C41.059 22.4103 40.9993 22.6343 40.9396 22.8433L35.5646 35.4745C35.2958 36.0718 34.8479 36.5794 34.2208 36.9975C33.5937 37.4155 32.9368 37.6245 32.25 37.6245H12.5416ZM16.125 15.8558V34.0412H32.25L37.625 21.4995V17.9162H21.5L23.9187 8.06204L16.125 15.8558ZM7.16665 37.6245C6.18123 37.6245 5.33765 37.2737 4.63592 36.5719C3.93418 35.8702 3.58331 35.0266 3.58331 34.0412V17.9162C3.58331 16.9308 3.93418 16.0872 4.63592 15.3855C5.33765 14.6837 6.18123 14.3329 7.16665 14.3329H12.5416V17.9162H7.16665V34.0412H12.5416V37.6245H7.16665Z" fill="var(--main-purple)"/>
</g>
</svg>
